<mxfile host="app.diagrams.net" modified="2023-11-22T00:54:24.972Z" agent="Mozilla/5.0 (Windows NT 10.0; Win64; x64) AppleWebKit/537.36 (KHTML, like Gecko) Chrome/119.0.0.0 Safari/537.36" version="22.1.3" etag="D4BXIONzbrr4vjx7sIbY" type="device">
  <diagram id="JIO4U5yVURzNJD8ckPtT" name="Page-1">
    <mxGraphModel dx="882" dy="578" grid="1" gridSize="10" guides="1" tooltips="1" connect="1" arrows="1" fold="1" page="1" pageScale="1" pageWidth="850" pageHeight="1100" math="0" shadow="0">
      <root>
        <mxCell id="0" />
        <mxCell id="1" parent="0" />
        <mxCell id="eFPhAUua95PlRwn67jXh-10" style="edgeStyle=orthogonalEdgeStyle;rounded=0;orthogonalLoop=1;jettySize=auto;html=1;exitX=1;exitY=0.5;exitDx=0;exitDy=0;entryX=0;entryY=0.5;entryDx=0;entryDy=0;" edge="1" parent="1" source="eFPhAUua95PlRwn67jXh-1" target="eFPhAUua95PlRwn67jXh-4">
          <mxGeometry relative="1" as="geometry" />
        </mxCell>
        <mxCell id="eFPhAUua95PlRwn67jXh-1" value="Text search" style="rounded=1;whiteSpace=wrap;html=1;" vertex="1" parent="1">
          <mxGeometry x="240" y="40" width="120" height="60" as="geometry" />
        </mxCell>
        <mxCell id="eFPhAUua95PlRwn67jXh-8" style="edgeStyle=orthogonalEdgeStyle;rounded=0;orthogonalLoop=1;jettySize=auto;html=1;exitX=0.5;exitY=0;exitDx=0;exitDy=0;entryX=0;entryY=0.5;entryDx=0;entryDy=0;" edge="1" parent="1" source="eFPhAUua95PlRwn67jXh-2" target="eFPhAUua95PlRwn67jXh-1">
          <mxGeometry relative="1" as="geometry" />
        </mxCell>
        <mxCell id="eFPhAUua95PlRwn67jXh-9" style="edgeStyle=orthogonalEdgeStyle;rounded=0;orthogonalLoop=1;jettySize=auto;html=1;exitX=0.5;exitY=1;exitDx=0;exitDy=0;entryX=0;entryY=0.5;entryDx=0;entryDy=0;" edge="1" parent="1" source="eFPhAUua95PlRwn67jXh-2" target="eFPhAUua95PlRwn67jXh-3">
          <mxGeometry relative="1" as="geometry" />
        </mxCell>
        <mxCell id="eFPhAUua95PlRwn67jXh-2" value="Text query" style="rounded=1;whiteSpace=wrap;html=1;" vertex="1" parent="1">
          <mxGeometry x="40" y="120" width="120" height="60" as="geometry" />
        </mxCell>
        <mxCell id="eFPhAUua95PlRwn67jXh-11" style="edgeStyle=orthogonalEdgeStyle;rounded=0;orthogonalLoop=1;jettySize=auto;html=1;exitX=1;exitY=0.5;exitDx=0;exitDy=0;entryX=0;entryY=0.5;entryDx=0;entryDy=0;" edge="1" parent="1" source="eFPhAUua95PlRwn67jXh-3" target="eFPhAUua95PlRwn67jXh-5">
          <mxGeometry relative="1" as="geometry" />
        </mxCell>
        <mxCell id="eFPhAUua95PlRwn67jXh-3" value="Visual search" style="rounded=1;whiteSpace=wrap;html=1;" vertex="1" parent="1">
          <mxGeometry x="240" y="200" width="120" height="60" as="geometry" />
        </mxCell>
        <mxCell id="eFPhAUua95PlRwn67jXh-14" style="edgeStyle=orthogonalEdgeStyle;rounded=0;orthogonalLoop=1;jettySize=auto;html=1;exitX=1;exitY=0.5;exitDx=0;exitDy=0;entryX=0;entryY=0.25;entryDx=0;entryDy=0;" edge="1" parent="1" source="eFPhAUua95PlRwn67jXh-4" target="eFPhAUua95PlRwn67jXh-6">
          <mxGeometry relative="1" as="geometry" />
        </mxCell>
        <mxCell id="eFPhAUua95PlRwn67jXh-4" value="Videos" style="rounded=1;whiteSpace=wrap;html=1;" vertex="1" parent="1">
          <mxGeometry x="440" y="40" width="120" height="60" as="geometry" />
        </mxCell>
        <mxCell id="eFPhAUua95PlRwn67jXh-13" style="edgeStyle=orthogonalEdgeStyle;rounded=0;orthogonalLoop=1;jettySize=auto;html=1;exitX=1;exitY=0.5;exitDx=0;exitDy=0;entryX=0;entryY=0.75;entryDx=0;entryDy=0;" edge="1" parent="1" source="eFPhAUua95PlRwn67jXh-5" target="eFPhAUua95PlRwn67jXh-6">
          <mxGeometry relative="1" as="geometry" />
        </mxCell>
        <mxCell id="eFPhAUua95PlRwn67jXh-5" value="Videos" style="rounded=1;whiteSpace=wrap;html=1;" vertex="1" parent="1">
          <mxGeometry x="440" y="200" width="120" height="60" as="geometry" />
        </mxCell>
        <mxCell id="eFPhAUua95PlRwn67jXh-15" style="edgeStyle=orthogonalEdgeStyle;rounded=0;orthogonalLoop=1;jettySize=auto;html=1;exitX=0.5;exitY=1;exitDx=0;exitDy=0;entryX=0.5;entryY=0;entryDx=0;entryDy=0;" edge="1" parent="1" source="eFPhAUua95PlRwn67jXh-6" target="eFPhAUua95PlRwn67jXh-7">
          <mxGeometry relative="1" as="geometry" />
        </mxCell>
        <mxCell id="eFPhAUua95PlRwn67jXh-6" value="Fusing" style="rounded=1;whiteSpace=wrap;html=1;" vertex="1" parent="1">
          <mxGeometry x="640" y="120" width="120" height="60" as="geometry" />
        </mxCell>
        <mxCell id="eFPhAUua95PlRwn67jXh-7" value="Result" style="rounded=1;whiteSpace=wrap;html=1;" vertex="1" parent="1">
          <mxGeometry x="640" y="280" width="120" height="60" as="geometry" />
        </mxCell>
      </root>
    </mxGraphModel>
  </diagram>
</mxfile>
